<svg width="18" height="19" viewBox="0 0 18 19" fill="none" xmlns="http://www.w3.org/2000/svg">
<path d="M16.6 18.0468L10.3 11.7426C9.8 12.1429 9.225 12.4598 8.575 12.6932C7.925 12.9267 7.23333 13.0435 6.5 13.0435C4.68333 13.0435 3.146 12.4137 1.888 11.1542C0.63 9.89473 0.000666667 8.35639 0 6.53919C0 4.72133 0.629333 3.18298 1.888 1.92416C3.14667 0.665327 4.684 0.0355792 6.5 0.0349121C8.31667 0.0349121 9.854 0.66466 11.112 1.92416C12.37 3.18365 12.9993 4.722 13 6.53919C13 7.27301 12.8833 7.96513 12.65 8.61556C12.4167 9.26599 12.1 9.84136 11.7 10.3417L18 16.6458L16.6 18.0468ZM6.5 11.0422C7.75 11.0422 8.81267 10.6042 9.688 9.72829C10.5633 8.85238 11.0007 7.78935 11 6.53919C11 5.28837 10.5623 4.225 9.687 3.34909C8.81167 2.47318 7.74933 2.03556 6.5 2.03623C5.25 2.03623 4.18733 2.47418 3.312 3.35009C2.43667 4.226 1.99933 5.28904 2 6.53919C2 7.79001 2.43767 8.85338 3.313 9.72929C4.18833 10.6052 5.25067 11.0428 6.5 11.0422Z" fill="#74777D"/>
</svg>
