<svg width="64" height="64" viewBox="0 0 64 64" fill="none" xmlns="http://www.w3.org/2000/svg">
<path d="M32 2C15.431 2 2 15.431 2 32C2 48.569 15.431 62 32 62C48.569 62 62 48.569 62 32C62 15.431 48.569 2 32 2Z" stroke="#74777D" stroke-width="4" stroke-linecap="round" stroke-linejoin="round"/>
<path d="M8.81299 51.038C8.81299 51.038 15.5 42.5 32 42.5C48.5 42.5 55.19 51.038 55.19 51.038M32 32C34.3869 32 36.6761 31.0518 38.364 29.364C40.0518 27.6761 41 25.3869 41 23C41 20.6131 40.0518 18.3239 38.364 16.636C36.6761 14.9482 34.3869 14 32 14C29.613 14 27.3239 14.9482 25.636 16.636C23.9482 18.3239 23 20.6131 23 23C23 25.3869 23.9482 27.6761 25.636 29.364C27.3239 31.0518 29.613 32 32 32Z" stroke="#74777D" stroke-width="4" stroke-linecap="round" stroke-linejoin="round"/>
</svg>
